<svg width="20" height="37" viewBox="0 0 20 37" fill="none" xmlns="http://www.w3.org/2000/svg">
<path d="M2.14676 27.699V34.8538H17.7847V27.699L19.9314 25.7567V35.5694L17.7847 37H2.14676L0 35.5694V25.7567L2.14676 27.699Z" fill="#F9FAFC"/>
<path d="M2.14676 24.735V16.3535L10.1188 24.3261L17.7847 16.3535V24.735L19.9314 23.3038V11.6516L10.1188 21.0554L0 11.6516V23.2016" fill="#F9FAFC"/>
<path d="M13.3895 10.9366V8.38092H6.54143V12.3672L11.2433 17.0691L9.81213 18.4997L4.7019 13.0828V8.07424L6.54143 6.23471H13.3895L15.2296 7.66533V12.3672L13.3895 10.9366Z" fill="#F9FAFC"/>
<path d="M13.3895 24.0194V29.028H6.54143V25.4506L4.7019 24.0194V29.4363L6.13252 30.8675H13.3895L15.2296 29.028V22.1793L13.3895 24.0194Z" fill="#F9FAFC"/>
<path d="M17.7847 10.8344V1.83953H2.14676V10.8344L0 9.09652V1.83953L1.84008 0H18.0914L19.9314 1.53284V9.09652L17.7847 10.8344Z" fill="#F9FAFC"/>
<path d="M18.1936 1.4306H1.53339V2.14619H18.1936V1.4306Z" fill="#F9FAFC"/>
</svg>
